<?xml version="1.0" encoding="UTF-8"?>
<svg width="200px" height="200px" viewBox="0 0 200 200" version="1.1" xmlns="http://www.w3.org/2000/svg" xmlns:xlink="http://www.w3.org/1999/xlink">
    <title>OK</title>
    <g id="OK" stroke="none" stroke-width="1" fill="none" fill-rule="evenodd">
        <rect id="Rectangle" fill="#FFFFFF" x="0" y="0" width="200" height="200"></rect>
        <path d="M37.3797548,84.9451403 C39.73265,86.75123 47.1486917,94.8975377 49.0211899,97.1067863 C50.193351,98.4897492 59.3188603,108.790786 76.3977178,128.009896 L76.3977209,128.009893 C78.2320217,130.074061 81.392355,130.260405 83.4565229,128.426105 C83.4980442,128.389207 83.5389478,128.35162 83.5792166,128.31336 C99.0369974,113.626483 112.511728,100.415301 124.003407,88.6798132 C145.423756,67.3747213 153.248251,59.6709592 162.045998,51.5764227 C163.168527,51.0732193 164.217494,51.6061354 163.73403,52.9602219 C160.354472,57.5012795 159.320627,58.5162823 157.442547,60.5696765 C148.995322,70.0833235 126.451384,95.4071658 124.877409,97.1067863 C123.766124,98.3666361 110.305855,113.37886 84.4966004,142.143459 L84.4966011,142.14346 C82.652422,144.198811 79.4912283,144.369999 77.4358775,142.52582 C77.0393809,142.170061 76.702284,141.753225 76.4373378,141.29108 C69.1916167,128.652388 62.0497693,118.137074 55.0117957,109.745137 C42.8117787,95.1980851 42.1154739,94.184976 37.3797548,88.6798132 C33.9283832,84.1126105 35.7107961,84.2672578 37.3797548,84.9451403 Z" id="Path" fill="#000000"></path>
    </g>
</svg>